# xmcd
#
# Track frame offsets: 
#        150
#        12372
#        29740
#        48715
#        80137
#        92577
#        110785
#        133752
#        152055
#        167227
#        196380
#        223627
#        242112
#        258060
#        284242
#        300550
#
# Disc length: 4268 seconds
#
# Revision: 0
# Processed by: cddbd v1.5.2PL0 Copyright (c) Steve Scherf et al.
# Submitted via: ExactAudioCopy v0.99pb5
#
DISCID=f010aa10
DTITLE=Cream  - Reunion Party 
DYEAR=1900
DGENRE=
TTITLE0=Sunshine Of Your Love #1
TTITLE1=Sunshine Of Your Love #2
TTITLE2=Sunshine Of Your Love #3
TTITLE3=Sunshine Of Your Love #4
TTITLE4=Sunshine Of Your Love #5
TTITLE5=Born Under A Bad Sign #1
TTITLE6=Crossroads #1
TTITLE7=Born Under A Bad Sign #2
TTITLE8=Instrumental jam
TTITLE9=Sunshine Of Your Love #6
TTITLE10=Born Under A Bad Sign #3
TTITLE11=Crossroads #2
TTITLE12=Induction
TTITLE13=Sunshine Of Your Love
TTITLE14=Born Under A Bad Sign
TTITLE15=Crossroads
EXTD=
EXTT0=
EXTT1=
EXTT2=
EXTT3=
EXTT4=
EXTT5=
EXTT6=
EXTT7=
EXTT8=
EXTT9=
EXTT10=
EXTT11=
EXTT12=
EXTT13=
EXTT14=
EXTT15=
PLAYORDER=
